HIERARCHY
ROOT Hips
{
    OFFSET   0.000000   0.000000   0.000000
    CHANNELS 6 Xposition Yposition Zposition Zrotation Xrotation Yrotation
    JOINT Chest
    {
        OFFSET   0.000000   8.007230   0.000000
        CHANNELS 3 Zrotation Xrotation Yrotation
        JOINT Chest2
        {
            OFFSET   0.000000  22.077100   0.000000
            CHANNELS 3 Zrotation Xrotation Yrotation
            JOINT Neck
            {
                OFFSET   0.000000  23.254800   0.000000
                CHANNELS 3 Zrotation Xrotation Yrotation
                JOINT Head
                {
                    OFFSET   0.000010  14.370000   1.956600
                    CHANNELS 3 Zrotation Xrotation Yrotation
                    End Site
                    {
                        OFFSET   0.000000  19.566000   0.000000
                    }
                }
            }
            JOINT LeftCollar
            {
                OFFSET   3.911900  19.017000  -0.467062
                CHANNELS 3 Zrotation Xrotation Yrotation
                JOINT LeftShoulder
                {
                    OFFSET  10.383700   0.000000   0.000000
                    CHANNELS 3 Zrotation Xrotation Yrotation
                    JOINT LeftElbow
                    {
                        OFFSET  26.662100   0.001193   0.000835
                        CHANNELS 3 Zrotation Xrotation Yrotation
                        JOINT LeftWrist
                        {
                            OFFSET  28.869000  -0.000058  -0.000075
                            CHANNELS 3 Zrotation Xrotation Yrotation
                            JOINT LeftFinger0
                            {
                                OFFSET   2.044660  -2.323460   3.252850
                                CHANNELS 3 Zrotation Xrotation Yrotation
                                JOINT LeftFinger01
                                {
                                    OFFSET   3.088130   0.000000   0.000000
                                    CHANNELS 3 Zrotation Xrotation Yrotation
                                    JOINT LeftFinger02
                                    {
                                        OFFSET   2.639450   0.000000   0.000000
                                        CHANNELS 3 Zrotation Xrotation Yrotation
                                        End Site
                                        {
                                            OFFSET   2.582190   0.000000   0.000000
                                        }
                                    }
                                }
                            }
                            JOINT LeftFinger1
                            {
                                OFFSET   8.364480   0.000000   3.252850
                                CHANNELS 3 Zrotation Xrotation Yrotation
                                JOINT LeftFinger11
                                {
                                    OFFSET   4.646920   0.000000   0.000000
                                    CHANNELS 3 Zrotation Xrotation Yrotation
                                    JOINT LeftFinger12
                                    {
                                        OFFSET   2.323460   0.000000   0.000000
                                        CHANNELS 3 Zrotation Xrotation Yrotation
                                        End Site
                                        {
                                            OFFSET   2.273050   0.000000   0.000000
                                        }
                                    }
                                }
                            }
                            JOINT LeftFinger2
                            {
                                OFFSET   8.364490   0.000016   1.078090
                                CHANNELS 3 Zrotation Xrotation Yrotation
                                JOINT LeftFinger21
                                {
                                    OFFSET   5.111620   0.000000   0.000000
                                    CHANNELS 3 Zrotation Xrotation Yrotation
                                    JOINT LeftFinger22
                                    {
                                        OFFSET   2.788150   0.000012   0.000000
                                        CHANNELS 3 Zrotation Xrotation Yrotation
                                        End Site
                                        {
                                            OFFSET   2.727660   0.000000   0.000000
                                        }
                                    }
                                }
                            }
                            JOINT LeftFinger3
                            {
                                OFFSET   7.899780   0.000014  -1.078090
                                CHANNELS 3 Zrotation Xrotation Yrotation
                                JOINT LeftFinger31
                                {
                                    OFFSET   4.646930   0.000000   0.000000
                                    CHANNELS 3 Zrotation Xrotation Yrotation
                                    JOINT LeftFinger32
                                    {
                                        OFFSET   2.323470   0.000000   0.000000
                                        CHANNELS 3 Zrotation Xrotation Yrotation
                                        End Site
                                        {
                                            OFFSET   2.273050   0.000000   0.000000
                                        }
                                    }
                                }
                            }
                            JOINT LeftFinger4
                            {
                                OFFSET   7.435090   0.000000  -3.252850
                                CHANNELS 3 Zrotation Xrotation Yrotation
                                JOINT LeftFinger41
                                {
                                    OFFSET   3.717550   0.000000   0.000000
                                    CHANNELS 3 Zrotation Xrotation Yrotation
                                    JOINT LeftFinger42
                                    {
                                        OFFSET   1.858770   0.000000   0.000000
                                        CHANNELS 3 Zrotation Xrotation Yrotation
                                        End Site
                                        {
                                            OFFSET   1.818440   0.000000   0.000000
                                        }
                                    }
                                }
                            }
                        }
                    }
                }
            }
            JOINT RightCollar
            {
                OFFSET  -3.911900  19.017000  -0.467063
                CHANNELS 3 Zrotation Xrotation Yrotation
                JOINT RightShoulder
                {
                    OFFSET -10.383700   0.000023   0.000000
                    CHANNELS 3 Zrotation Xrotation Yrotation
                    JOINT RightElbow
                    {
                        OFFSET -26.662100   0.001246   0.001011
                        CHANNELS 3 Zrotation Xrotation Yrotation
                        JOINT RightWrist
                        {
                            OFFSET -28.869000  -0.000026  -0.000078
                            CHANNELS 3 Zrotation Xrotation Yrotation
                            JOINT RightFinger0
                            {
                                OFFSET  -2.044660  -2.323490   3.252850
                                CHANNELS 3 Zrotation Xrotation Yrotation
                                JOINT RightFinger01
                                {
                                    OFFSET  -3.088130   0.000000   0.000000
                                    CHANNELS 3 Zrotation Xrotation Yrotation
                                    JOINT RightFinger02
                                    {
                                        OFFSET  -2.639460   0.000000   0.000000
                                        CHANNELS 3 Zrotation Xrotation Yrotation
                                        End Site
                                        {
                                            OFFSET  -2.582190   0.000000   0.000000
                                        }
                                    }
                                }
                            }
                            JOINT RightFinger1
                            {
                                OFFSET  -8.364480   0.000000   3.252850
                                CHANNELS 3 Zrotation Xrotation Yrotation
                                JOINT RightFinger11
                                {
                                    OFFSET  -4.646920   0.000000   0.000000
                                    CHANNELS 3 Zrotation Xrotation Yrotation
                                    JOINT RightFinger12
                                    {
                                        OFFSET  -2.323470   0.000000   0.000000
                                        CHANNELS 3 Zrotation Xrotation Yrotation
                                        End Site
                                        {
                                            OFFSET  -2.273050   0.000000   0.000000
                                        }
                                    }
                                }
                            }
                            JOINT RightFinger2
                            {
                                OFFSET  -8.364480   0.000000   1.078090
                                CHANNELS 3 Zrotation Xrotation Yrotation
                                JOINT RightFinger21
                                {
                                    OFFSET  -5.111620   0.000000   0.000000
                                    CHANNELS 3 Zrotation Xrotation Yrotation
                                    JOINT RightFinger22
                                    {
                                        OFFSET  -2.788160   0.000000   0.000000
                                        CHANNELS 3 Zrotation Xrotation Yrotation
                                        End Site
                                        {
                                            OFFSET  -2.727660   0.000000   0.000000
                                        }
                                    }
                                }
                            }
                            JOINT RightFinger3
                            {
                                OFFSET  -7.899780   0.000000  -1.078090
                                CHANNELS 3 Zrotation Xrotation Yrotation
                                JOINT RightFinger31
                                {
                                    OFFSET  -4.646930   0.000000   0.000000
                                    CHANNELS 3 Zrotation Xrotation Yrotation
                                    JOINT RightFinger32
                                    {
                                        OFFSET  -2.323470   0.000000   0.000000
                                        CHANNELS 3 Zrotation Xrotation Yrotation
                                        End Site
                                        {
                                            OFFSET  -2.273050   0.000000   0.000000
                                        }
                                    }
                                }
                            }
                            JOINT RightFinger4
                            {
                                OFFSET  -7.435090   0.000000  -3.252850
                                CHANNELS 3 Zrotation Xrotation Yrotation
                                JOINT RightFinger41
                                {
                                    OFFSET  -3.717550   0.000000   0.000000
                                    CHANNELS 3 Zrotation Xrotation Yrotation
                                    JOINT RightFinger42
                                    {
                                        OFFSET  -1.858760   0.000000   0.000000
                                        CHANNELS 3 Zrotation Xrotation Yrotation
                                        End Site
                                        {
                                            OFFSET  -1.818440   0.000000   0.000000
                                        }
                                    }
                                }
                            }
                        }
                    }
                }
            }
        }
    }
    JOINT LeftHip
    {
        OFFSET   9.783010   0.000000   0.000000
        CHANNELS 3 Zrotation Xrotation Yrotation
        JOINT LeftKnee
        {
            OFFSET   0.000073 -41.789100   0.001749
            CHANNELS 3 Zrotation Xrotation Yrotation
            JOINT LeftAnkle
            {
                OFFSET   0.000111 -41.133200  -0.000179
                CHANNELS 3 Zrotation Xrotation Yrotation
                JOINT LeftToe
                {
                    OFFSET   0.000000  -6.358960  14.674500
                    CHANNELS 3 Zrotation Xrotation Yrotation
                    End Site
                    {
                        OFFSET   0.000000   0.000000   3.913200
                    }
                }
            }
        }
    }
    JOINT RightHip
    {
        OFFSET  -9.783010   0.000000   0.000000
        CHANNELS 3 Zrotation Xrotation Yrotation
        JOINT RightKnee
        {
            OFFSET   0.000424 -41.789200   0.005205
            CHANNELS 3 Zrotation Xrotation Yrotation
            JOINT RightAnkle
            {
                OFFSET   0.000000 -41.133200  -0.000155
                CHANNELS 3 Zrotation Xrotation Yrotation
                JOINT RightToe
                {
                    OFFSET   0.000000  -6.358960  14.674500
                    CHANNELS 3 Zrotation Xrotation Yrotation
                    End Site
                    {
                        OFFSET   0.000000   0.000000   3.913200
                    }
                }
            }
        }
    }
}
MOTION
Frames: 5
Frame Time:   0.016667
  0.912604  89.388000  -0.829581  -0.237456  -1.276750   5.928370   0.721270   2.205590  -0.749288   1.473000   4.401370  -1.528000  -2.171200   1.956210   0.081914  -3.578500   3.949200   6.449650  -4.919370   1.398260  11.517900 -79.169700   4.184390   0.967872   0.112272   3.559790 -13.232800   7.066310  -2.891070  -3.824370  35.454000  28.077500 -61.217300 -33.324700   0.003228   0.003358 -11.662300   0.001553  -0.004729 -30.922000   1.652320  -2.761510 -25.332400   0.008205   0.000835 -17.735100   0.011867   0.000458 -28.489600  -3.901780   7.150100 -39.722700  -0.000704  -0.001175 -26.455300   0.011032  -0.000822 -27.002400  -3.717230   7.248800 -27.980800  -0.009926   0.000363 -18.635200   0.000567   0.000216 -27.304400  -5.600500  10.705100 -41.744300   0.000629  -0.000238 -27.801700   0.008347  -0.009950   5.903400   4.600910   5.743850  73.722100  -5.093640  -0.988858   3.769790  -5.370290  12.652800 -14.644400  -3.117620  -0.183159 -38.249300  31.367700  73.443500  25.243200  -0.000595   0.000401   7.621580  -0.000229   0.000500  27.016300   3.091030   6.040350  22.237600  -0.001374   0.002508  15.566400  -0.000413   0.010583  26.008900   0.171336   0.351158  26.009400   0.004003   0.004664  17.331100   0.008599   0.000969  22.929800  -0.670193  -1.583820  22.939000   0.002355   0.008566  15.277400   0.001893   0.009195  23.144100  -3.633510  -8.433380  35.118100   0.002049   0.003388  23.388700   0.006232  -0.004112   2.239720   3.902780  -0.749762   1.082400   1.384570  13.170500  -3.524630  -3.574220  -2.228850   0.000000   0.000000   0.000000  -1.146520   5.135070  -4.893010   2.315140   0.349523 -14.551500  -0.169778  -3.854700  -2.582150   0.000000   0.000000   0.000000
  0.912715  89.388000  -0.829579  -0.237421  -1.277240   5.928370   0.721335   2.209540  -0.749069   1.473190   4.409270  -1.527590  -2.206990   1.969910   0.081761  -3.637590   3.976470   6.512790  -4.920790   1.395240  11.517700 -79.176200   4.211010   0.948680   0.110428   3.552830 -13.232700   7.070860  -2.856830  -3.820560  35.454600  28.108900 -61.188500 -33.367100   0.003216   0.003362 -11.683500   0.001556  -0.004713 -30.922600   1.652320  -2.760580 -25.332800   0.008205   0.000836 -17.735100   0.011866   0.000462 -28.489500  -3.901900   7.150140 -39.723300  -0.000708  -0.001170 -26.455700   0.011035  -0.000822 -27.002200  -3.717310   7.248850 -27.972300  -0.009931   0.000366 -18.629500   0.000563   0.000219 -27.299300  -5.594850  10.696900 -41.735200   0.000625  -0.000236 -27.795700   0.008347  -0.009949   5.900850   4.597450   5.726600  73.742000  -5.085180  -0.988484   3.769300  -5.362040  12.665300 -14.661800  -3.117900  -0.148341 -38.188100  31.318100  73.406100  25.276300  -0.000598   0.000407   7.638150  -0.000228   0.000514  27.043400   3.090600   6.031230  22.259600  -0.001376   0.002483  15.581800  -0.000413   0.010581  26.013700   0.165588   0.339319  26.014200   0.004000   0.004636  17.331100   0.008600   0.000963  22.936200  -0.684246  -1.616480  22.945800   0.002352   0.008579  15.281900   0.001871   0.009192  23.129400  -3.648310  -8.473240  35.098900   0.002030   0.003359  23.375900   0.006227  -0.004115   2.239540   3.898650  -0.749735   1.082140   1.391570  13.170400  -3.524890  -3.575790  -2.229100   0.000000   0.000000   0.000000  -1.145840   5.128310  -4.904040   2.314730   0.377067 -14.553700  -0.166234  -3.866750  -2.574350  -0.000000   0.000000   0.000000
  0.912898  89.388000  -0.829563  -0.237105  -1.280660   5.928380   0.721449   2.217740  -0.747528   1.473470   4.425690  -1.524700  -2.270370   1.994560   0.081610  -3.742380   4.025400   6.624400  -4.923150   1.387640  11.517500 -79.186500   4.264930   0.912906   0.107174   3.539880 -13.232600   7.081430  -2.809740  -3.813770  35.468100  28.168700 -61.122300 -33.435400   0.003203   0.003366 -11.717700   0.001559  -0.004698 -30.926400   1.652330  -2.755440 -25.335900   0.008207   0.000841 -17.735100   0.011864   0.000469 -28.489400  -3.902120   7.150200 -39.727700  -0.000718  -0.001161 -26.458600   0.011046  -0.000819 -27.002000  -3.717450   7.248930 -27.963800  -0.009946   0.000373 -18.623900   0.000552   0.000225 -27.294200  -5.589200  10.688700 -41.726200   0.000612  -0.000230 -27.789700   0.008350  -0.009947   5.897430   4.587870   5.700190  73.771900  -5.059660  -0.988083   3.768790  -5.350810  12.683600 -14.685600  -3.118180  -0.082434 -38.126900  31.268400  73.368900  25.336500  -0.000617   0.000413   7.668250  -0.000227   0.000540  27.081700   3.087350   6.012900  22.290500  -0.001381   0.002433  15.603300  -0.000415   0.010576  26.022300   0.155917   0.319392  26.022700   0.003994   0.004580  17.331100   0.008602   0.000948  22.951000  -0.707219  -1.669480  22.961300   0.002346   0.008608  15.292200   0.001826   0.009184  23.112700  -3.669650  -8.528580  35.079600   0.001991   0.003301  23.363100   0.006214  -0.004120   2.239260   3.894510  -0.749679   1.080760   1.403350  13.170400  -3.525150  -3.577350  -2.229350  -0.000000   0.000000   0.000000  -1.145010   5.121550  -4.915700   2.314340   0.404606 -14.558000  -0.162265  -3.878820  -2.560300   0.000000   0.000000   0.000000
  0.913071  89.388000  -0.829410  -0.236420  -1.289080   5.922670   0.721550   2.227580  -0.743719   1.473660   4.445410  -1.517260  -2.328970   2.017140   0.082727  -3.839420   4.069860   6.725820  -4.925320   1.377070  11.518000 -79.193200   4.325610   0.877023   0.105402   3.529190 -13.225300   7.095980  -2.793020  -3.808500  35.494200  28.214300 -61.010700 -33.485400   0.003203   0.003358 -11.742700   0.001556  -0.004702 -30.937500   1.646710  -2.742940 -25.344800   0.008214   0.000856 -17.740400   0.011864   0.000479 -28.489400  -3.902410   7.150220 -39.755300  -0.000734  -0.001149 -26.476900   0.011063  -0.000811 -27.002000  -3.717640   7.248970 -27.973000  -0.009973   0.000383 -18.630000   0.000535   0.000233 -27.301700  -5.592620  10.690800 -41.738100   0.000588  -0.000220 -27.797600   0.008355  -0.009946   5.895860   4.572100   5.682420  73.789700  -5.015210  -0.988863   3.768810  -5.347270  12.689900 -14.694600  -3.117500  -0.010747 -38.121000  31.283500  73.361200  25.397000  -0.000659   0.000408   7.698540  -0.000245   0.000566  27.098600   3.077170   5.988690  22.303500  -0.001388   0.002368  15.612600  -0.000421   0.010568  26.030700   0.148763   0.304610  26.031100   0.003987   0.004507  17.335400   0.008605   0.000925  22.968700  -0.728850  -1.718210  22.979600   0.002335   0.008648  15.304400   0.001764   0.009171  23.119800  -3.681000  -8.550620  35.092700   0.001936   0.003226  23.371800   0.006193  -0.004126   2.239060   3.897940  -0.749602   1.077820   1.413130  13.176500  -3.524740  -3.576430  -2.228860   0.000000   0.000000  -0.000000  -1.141530   5.160380  -4.916730   2.312240   0.350617 -14.562600  -0.168426  -3.857040  -2.546910   0.000000   0.000000   0.000000
  0.913173  89.387900  -0.829207  -0.235376  -1.301980   5.913110   0.721620   2.239590  -0.737752   1.473750   4.469520  -1.505430  -2.392070   2.043840   0.085303  -3.943900   4.122470   6.837370  -4.926950   1.361570  11.521400 -79.200400   4.402810   0.835205   0.103826   3.512220 -13.209500   7.114560  -2.788240  -3.800420  35.520200  28.245500 -60.860800 -33.532100   0.003204   0.003350 -11.766100   0.001548  -0.004707 -30.956400   1.637680  -2.727820 -25.359900   0.008223   0.000879 -17.751900   0.011865   0.000492 -28.489500  -3.902590   7.150230 -39.795700  -0.000755  -0.001134 -26.503900   0.011085  -0.000799 -27.002400  -3.717760   7.248980 -27.992900  -0.010009   0.000397 -18.643200   0.000512   0.000244 -27.314800  -5.596040  10.692900 -41.758200   0.000556  -0.000207 -27.811000   0.008361  -0.009945   5.896450   4.552000   5.670610  73.802200  -4.957150  -0.994711   3.769710  -5.346520  12.698900 -14.695300  -3.112710   0.065556 -38.103200  31.321500  73.353200  25.459900  -0.000713   0.000403   7.729960  -0.000275   0.000598  27.106000   3.066640   5.966690  22.308400  -0.001397   0.002310  15.615900  -0.000430   0.010558  26.039000   0.139943   0.286451  26.039300   0.003979   0.004442  17.342200   0.008608   0.000896  22.997100  -0.741559  -1.746590  23.008400   0.002320   0.008689  15.323600   0.001701   0.009156  23.133500  -3.685820  -8.557180  35.114200   0.001881   0.003159  23.386000   0.006167  -0.004133   2.239020   3.906540  -0.749529   1.074890   1.422790  13.182600  -3.524000  -3.575510  -2.225440  -0.000000   0.000000  -0.000000  -1.137660   5.204320  -4.917180   2.310150   0.296629 -14.568700  -0.174506  -3.835270  -2.532150   0.000000   0.000000   0.000000
